<svg width="960" height="540" viewBox="0 0 960 540" fill="none" xmlns="http://www.w3.org/2000/svg">
  <rect width="960" height="540" rx="48" fill="#EEF2FF" />
  <g filter="url(#shadow)">
    <rect x="180" y="120" width="600" height="360" rx="32" fill="url(#panel)" />
  </g>
  <rect x="220" y="160" width="520" height="80" rx="20" fill="#FFFFFF" opacity="0.95" />
  <rect x="220" y="260" width="320" height="60" rx="16" fill="#312E81" opacity="0.9" />
  <rect x="560" y="260" width="180" height="60" rx="16" fill="#38BDF8" opacity="0.9" />
  <rect x="220" y="340" width="240" height="40" rx="12" fill="#6366F1" opacity="0.3" />
  <rect x="480" y="340" width="220" height="40" rx="12" fill="#6366F1" opacity="0.2" />
  <path d="M260 200h120" stroke="#6366F1" stroke-width="10" stroke-linecap="round" />
  <path d="M420 200h140" stroke="#A78BFA" stroke-width="10" stroke-linecap="round" />
  <circle cx="640" cy="200" r="24" fill="#22D3EE" />
  <g opacity="0.85">
    <path d="M720 160c0-44.182-35.818-80-80-80H400" stroke="#22D3EE" stroke-width="16" stroke-linecap="round" />
    <circle cx="720" cy="160" r="18" fill="#22D3EE" />
    <path d="M400 80c0 39.765-32.235 72-72 72H220" stroke="#A855F7" stroke-width="16" stroke-linecap="round" />
    <circle cx="220" cy="152" r="18" fill="#A855F7" />
  </g>
  <defs>
    <linearGradient id="panel" x1="180" y1="120" x2="780" y2="480" gradientUnits="userSpaceOnUse">
      <stop offset="0" stop-color="#F5F3FF" />
      <stop offset="1" stop-color="#E0F2FE" />
    </linearGradient>
    <filter id="shadow" x="140" y="80" width="680" height="440" filterUnits="userSpaceOnUse" color-interpolation-filters="sRGB">
      <feFlood flood-opacity="0" result="BackgroundImageFix" />
      <feColorMatrix in="SourceAlpha" type="matrix" values="0 0 0 0 0 0 0 0 0 0 0 0 0 0 0 0 0 0 127 0" result="hardAlpha" />
      <feOffset dy="20" />
      <feGaussianBlur stdDeviation="30" />
      <feColorMatrix type="matrix" values="0 0 0 0 0.12 0 0 0 0 0.16 0 0 0 0 0.35 0 0 0 0.12 0" />
      <feBlend mode="normal" in2="BackgroundImageFix" result="effect1_dropShadow" />
      <feBlend mode="normal" in="SourceGraphic" in2="effect1_dropShadow" result="shape" />
    </filter>
  </defs>
</svg>
