<svg width="960" height="540" viewBox="0 0 960 540" fill="none" xmlns="http://www.w3.org/2000/svg">
  <rect width="960" height="540" rx="48" fill="#ECFEFF" />
  <g filter="url(#shadow)">
    <rect x="180" y="110" width="600" height="360" rx="36" fill="#FFFFFF" />
  </g>
  <rect x="220" y="150" width="520" height="80" rx="24" fill="#0EA5E9" opacity="0.15" />
  <rect x="240" y="170" width="200" height="40" rx="12" fill="#38BDF8" opacity="0.7" />
  <rect x="460" y="170" width="220" height="40" rx="12" fill="#22D3EE" opacity="0.5" />
  <rect x="220" y="260" width="320" height="70" rx="20" fill="#0F172A" opacity="0.85" />
  <rect x="560" y="260" width="160" height="70" rx="20" fill="#38BDF8" opacity="0.7" />
  <rect x="220" y="360" width="200" height="60" rx="18" fill="#F0FDFA" stroke="#2DD4BF" stroke-width="4" />
  <rect x="440" y="360" width="300" height="60" rx="18" fill="#F8FAFC" stroke="#C4B5FD" stroke-width="4" />
  <path d="M260 293h160" stroke="#F8FAFC" stroke-width="12" stroke-linecap="round" opacity="0.9" />
  <path d="M580 293h60" stroke="#ECFEFF" stroke-width="12" stroke-linecap="round" opacity="0.9" />
  <circle cx="240" cy="380" r="18" fill="#34D399" />
  <circle cx="460" cy="380" r="18" fill="#818CF8" />
  <path d="M240 120v-40" stroke="#38BDF8" stroke-width="14" stroke-linecap="round" />
  <path d="M720 120v-40" stroke="#A855F7" stroke-width="14" stroke-linecap="round" />
  <defs>
    <filter id="shadow" x="130" y="60" width="700" height="460" filterUnits="userSpaceOnUse" color-interpolation-filters="sRGB">
      <feFlood flood-opacity="0" result="BackgroundImageFix" />
      <feColorMatrix in="SourceAlpha" type="matrix" values="0 0 0 0 0 0 0 0 0 0 0 0 0 0 0 0 0 0 127 0" result="hardAlpha" />
      <feOffset dy="20" />
      <feGaussianBlur stdDeviation="28" />
      <feColorMatrix type="matrix" values="0 0 0 0 0.12 0 0 0 0 0.23 0 0 0 0 0.27 0 0 0 0.12 0" />
      <feBlend mode="normal" in2="BackgroundImageFix" result="effect1_dropShadow" />
      <feBlend mode="normal" in="SourceGraphic" in2="effect1_dropShadow" result="shape" />
    </filter>
  </defs>
</svg>
