<svg width="960" height="540" viewBox="0 0 960 540" fill="none" xmlns="http://www.w3.org/2000/svg">
  <rect width="960" height="540" rx="48" fill="#EDE9FE" />
  <g filter="url(#shadow)">
    <rect x="180" y="110" width="600" height="360" rx="36" fill="#FFFFFF" />
  </g>
  <rect x="220" y="150" width="520" height="70" rx="22" fill="#7C3AED" opacity="0.15" />
  <rect x="240" y="170" width="200" height="34" rx="12" fill="#A855F7" opacity="0.7" />
  <rect x="460" y="170" width="240" height="34" rx="12" fill="#60A5FA" opacity="0.45" />
  <rect x="220" y="250" width="180" height="200" rx="28" fill="#E0E7FF" />
  <rect x="420" y="250" width="180" height="200" rx="28" fill="#DBEAFE" />
  <rect x="620" y="250" width="120" height="200" rx="28" fill="#DDD6FE" />
  <path d="M240 320h100" stroke="#7C3AED" stroke-width="12" stroke-linecap="round" />
  <path d="M440 320h100" stroke="#60A5FA" stroke-width="12" stroke-linecap="round" />
  <path d="M640 320h60" stroke="#A855F7" stroke-width="12" stroke-linecap="round" />
  <circle cx="300" cy="360" r="26" fill="#7C3AED" />
  <circle cx="500" cy="360" r="26" fill="#60A5FA" />
  <circle cx="660" cy="360" r="22" fill="#A855F7" />
  <defs>
    <filter id="shadow" x="140" y="70" width="680" height="440" filterUnits="userSpaceOnUse" color-interpolation-filters="sRGB">
      <feFlood flood-opacity="0" result="BackgroundImageFix" />
      <feColorMatrix in="SourceAlpha" type="matrix" values="0 0 0 0 0 0 0 0 0 0 0 0 0 0 0 0 0 0 127 0" result="hardAlpha" />
      <feOffset dy="20" />
      <feGaussianBlur stdDeviation="26" />
      <feColorMatrix type="matrix" values="0 0 0 0 0.15 0 0 0 0 0.14 0 0 0 0 0.27 0 0 0 0.12 0" />
      <feBlend mode="normal" in2="BackgroundImageFix" result="effect1_dropShadow" />
      <feBlend mode="normal" in="SourceGraphic" in2="effect1_dropShadow" result="shape" />
    </filter>
  </defs>
</svg>
