<svg width="960" height="540" viewBox="0 0 960 540" fill="none" xmlns="http://www.w3.org/2000/svg">
  <rect width="960" height="540" rx="48" fill="#FEF3C7" />
  <g filter="url(#shadow)">
    <rect x="180" y="110" width="600" height="360" rx="36" fill="#FFFFFF" />
  </g>
  <rect x="220" y="150" width="520" height="70" rx="20" fill="#F97316" opacity="0.12" />
  <rect x="240" y="170" width="180" height="30" rx="10" fill="#F97316" opacity="0.7" />
  <rect x="220" y="250" width="180" height="180" rx="24" fill="#FFEDD5" />
  <rect x="420" y="250" width="180" height="180" rx="24" fill="#FEFCE8" />
  <rect x="620" y="250" width="120" height="180" rx="24" fill="#ECFEFF" />
  <rect x="240" y="280" width="140" height="16" rx="8" fill="#F97316" opacity="0.8" />
  <rect x="240" y="310" width="120" height="12" rx="6" fill="#FDBA74" />
  <rect x="440" y="280" width="140" height="16" rx="8" fill="#10B981" opacity="0.8" />
  <rect x="440" y="310" width="120" height="12" rx="6" fill="#6EE7B7" />
  <circle cx="680" cy="300" r="40" fill="#A855F7" opacity="0.2" />
  <circle cx="680" cy="300" r="22" fill="#8B5CF6" />
  <path d="M240 360h100" stroke="#F97316" stroke-width="10" stroke-linecap="round" />
  <path d="M440 360h100" stroke="#10B981" stroke-width="10" stroke-linecap="round" />
  <path d="M640 360h60" stroke="#38BDF8" stroke-width="10" stroke-linecap="round" />
  <defs>
    <filter id="shadow" x="140" y="70" width="680" height="440" filterUnits="userSpaceOnUse" color-interpolation-filters="sRGB">
      <feFlood flood-opacity="0" result="BackgroundImageFix" />
      <feColorMatrix in="SourceAlpha" type="matrix" values="0 0 0 0 0 0 0 0 0 0 0 0 0 0 0 0 0 0 127 0" result="hardAlpha" />
      <feOffset dy="20" />
      <feGaussianBlur stdDeviation="26" />
      <feColorMatrix type="matrix" values="0 0 0 0 0.14 0 0 0 0 0.10 0 0 0 0 0.07 0 0 0 0.12 0" />
      <feBlend mode="normal" in2="BackgroundImageFix" result="effect1_dropShadow" />
      <feBlend mode="normal" in="SourceGraphic" in2="effect1_dropShadow" result="shape" />
    </filter>
  </defs>
</svg>
