<svg width="960" height="540" viewBox="0 0 960 540" fill="none" xmlns="http://www.w3.org/2000/svg">
  <rect width="960" height="540" rx="48" fill="#DCFCE7" />
  <g filter="url(#shadow)">
    <rect x="180" y="110" width="600" height="360" rx="36" fill="#FFFFFF" />
  </g>
  <rect x="220" y="150" width="520" height="70" rx="22" fill="#16A34A" opacity="0.15" />
  <rect x="240" y="170" width="200" height="34" rx="12" fill="#34D399" opacity="0.7" />
  <rect x="460" y="170" width="240" height="34" rx="12" fill="#22D3EE" opacity="0.45" />
  <rect x="220" y="250" width="520" height="200" rx="28" fill="#F0FDFA" />
  <rect x="260" y="280" width="160" height="140" rx="20" fill="#BBF7D0" />
  <rect x="450" y="280" width="160" height="140" rx="20" fill="#BAE6FD" />
  <rect x="640" y="280" width="80" height="140" rx="20" fill="#FDE68A" />
  <rect x="280" y="305" width="120" height="18" rx="9" fill="#16A34A" opacity="0.7" />
  <rect x="470" y="305" width="120" height="18" rx="9" fill="#0EA5E9" opacity="0.7" />
  <path d="M240 360h100" stroke="#16A34A" stroke-width="12" stroke-linecap="round" />
  <path d="M440 360h100" stroke="#0EA5E9" stroke-width="12" stroke-linecap="round" />
  <path d="M640 360h60" stroke="#F59E0B" stroke-width="12" stroke-linecap="round" />
  <defs>
    <filter id="shadow" x="140" y="70" width="680" height="440" filterUnits="userSpaceOnUse" color-interpolation-filters="sRGB">
      <feFlood flood-opacity="0" result="BackgroundImageFix" />
      <feColorMatrix in="SourceAlpha" type="matrix" values="0 0 0 0 0 0 0 0 0 0 0 0 0 0 0 0 0 0 127 0" result="hardAlpha" />
      <feOffset dy="20" />
      <feGaussianBlur stdDeviation="26" />
      <feColorMatrix type="matrix" values="0 0 0 0 0.12 0 0 0 0 0.25 0 0 0 0 0.16 0 0 0 0.12 0" />
      <feBlend mode="normal" in2="BackgroundImageFix" result="effect1_dropShadow" />
      <feBlend mode="normal" in="SourceGraphic" in2="effect1_dropShadow" result="shape" />
    </filter>
  </defs>
</svg>
