<svg width="960" height="540" viewBox="0 0 960 540" fill="none" xmlns="http://www.w3.org/2000/svg">
  <rect width="960" height="540" rx="48" fill="#F0F9FF" />
  <g filter="url(#shadow)">
    <rect x="180" y="110" width="600" height="360" rx="36" fill="#FFFFFF" />
  </g>
  <rect x="220" y="150" width="520" height="70" rx="22" fill="#38BDF8" opacity="0.15" />
  <rect x="240" y="170" width="200" height="34" rx="12" fill="#38BDF8" opacity="0.7" />
  <rect x="460" y="170" width="240" height="34" rx="12" fill="#818CF8" opacity="0.5" />
  <rect x="220" y="250" width="240" height="200" rx="28" fill="#E0F2FE" />
  <rect x="480" y="250" width="260" height="200" rx="28" fill="#EDE9FE" />
  <path d="M260 420c50-100 140-160 200-40 40 80 120 60 160-20" stroke="#38BDF8" stroke-width="18" stroke-linecap="round" stroke-linejoin="round" fill="none" />
  <circle cx="300" cy="360" r="28" fill="#0EA5E9" />
  <circle cx="540" cy="360" r="28" fill="#6366F1" />
  <circle cx="660" cy="320" r="18" fill="#22D3EE" />
  <defs>
    <filter id="shadow" x="140" y="70" width="680" height="440" filterUnits="userSpaceOnUse" color-interpolation-filters="sRGB">
      <feFlood flood-opacity="0" result="BackgroundImageFix" />
      <feColorMatrix in="SourceAlpha" type="matrix" values="0 0 0 0 0 0 0 0 0 0 0 0 0 0 0 0 0 0 127 0" result="hardAlpha" />
      <feOffset dy="20" />
      <feGaussianBlur stdDeviation="28" />
      <feColorMatrix type="matrix" values="0 0 0 0 0.11 0 0 0 0 0.15 0 0 0 0 0.35 0 0 0 0.12 0" />
      <feBlend mode="normal" in2="BackgroundImageFix" result="effect1_dropShadow" />
      <feBlend mode="normal" in="SourceGraphic" in2="effect1_dropShadow" result="shape" />
    </filter>
  </defs>
</svg>
