<svg width="960" height="540" viewBox="0 0 960 540" fill="none" xmlns="http://www.w3.org/2000/svg">
  <rect width="960" height="540" rx="48" fill="#FEE2E2" />
  <g filter="url(#shadow)">
    <rect x="180" y="110" width="600" height="360" rx="36" fill="#FFFFFF" />
  </g>
  <rect x="220" y="150" width="520" height="70" rx="24" fill="#EF4444" opacity="0.12" />
  <rect x="240" y="170" width="200" height="34" rx="12" fill="#F87171" opacity="0.7" />
  <rect x="460" y="170" width="240" height="34" rx="12" fill="#FBBF24" opacity="0.4" />
  <rect x="220" y="250" width="180" height="200" rx="24" fill="#FEE2E2" />
  <rect x="420" y="250" width="180" height="200" rx="24" fill="#FEF3C7" />
  <rect x="620" y="250" width="120" height="200" rx="24" fill="#FDE68A" />
  <rect x="240" y="280" width="140" height="18" rx="9" fill="#EF4444" opacity="0.8" />
  <rect x="440" y="280" width="140" height="18" rx="9" fill="#F97316" opacity="0.8" />
  <path d="M260 340h80" stroke="#EF4444" stroke-width="12" stroke-linecap="round" />
  <path d="M460 340h80" stroke="#F59E0B" stroke-width="12" stroke-linecap="round" />
  <path d="M640 340h60" stroke="#F97316" stroke-width="12" stroke-linecap="round" />
  <defs>
    <filter id="shadow" x="140" y="70" width="680" height="440" filterUnits="userSpaceOnUse" color-interpolation-filters="sRGB">
      <feFlood flood-opacity="0" result="BackgroundImageFix" />
      <feColorMatrix in="SourceAlpha" type="matrix" values="0 0 0 0 0 0 0 0 0 0 0 0 0 0 0 0 0 0 127 0" result="hardAlpha" />
      <feOffset dy="20" />
      <feGaussianBlur stdDeviation="26" />
      <feColorMatrix type="matrix" values="0 0 0 0 0.2 0 0 0 0 0.15 0 0 0 0 0.1 0 0 0 0.12 0" />
      <feBlend mode="normal" in2="BackgroundImageFix" result="effect1_dropShadow" />
      <feBlend mode="normal" in="SourceGraphic" in2="effect1_dropShadow" result="shape" />
    </filter>
  </defs>
</svg>
