<svg width="960" height="540" viewBox="0 0 960 540" fill="none" xmlns="http://www.w3.org/2000/svg">
  <rect width="960" height="540" rx="32" fill="#f8fafc" />
  <g filter="url(#cardShadow)">
    <rect x="180" y="110" width="600" height="360" rx="28" fill="#ffffff" />
  </g>
  <rect x="220" y="150" width="520" height="56" rx="18" fill="#dbeafe" />
  <circle cx="260" cy="178" r="16" fill="#1d4ed8" opacity="0.3" />
  <path d="M252 178l6 6 12-16" stroke="#1d4ed8" stroke-width="3" stroke-linecap="round" stroke-linejoin="round" fill="none" />
  <text x="288" y="186" fill="#1d4ed8" font-family="'Inter', 'Segoe UI', sans-serif" font-size="20" font-weight="600">Promo code: BOOST20</text>
  <rect x="220" y="230" width="260" height="110" rx="20" fill="#f1f5f9" />
  <text x="240" y="264" fill="#0f172a" font-family="'Inter', 'Segoe UI', sans-serif" font-size="18" font-weight="600">Survey routers</text>
  <rect x="240" y="282" width="200" height="18" rx="9" fill="#60a5fa" opacity="0.4" />
  <rect x="240" y="310" width="180" height="18" rx="9" fill="#38bdf8" opacity="0.4" />
  <rect x="240" y="338" width="160" height="18" rx="9" fill="#22d3ee" opacity="0.4" />
  <rect x="520" y="230" width="220" height="110" rx="20" fill="#ecfdf5" />
  <text x="540" y="264" fill="#064e3b" font-family="'Inter', 'Segoe UI', sans-serif" font-size="18" font-weight="600">Express Pay</text>
  <text x="540" y="294" fill="#047857" font-family="'Inter', 'Segoe UI', sans-serif" font-size="16">PayPal · 01:42 avg</text>
  <text x="540" y="324" fill="#047857" font-family="'Inter', 'Segoe UI', sans-serif" font-size="16">Crypto · 00:58 avg</text>
  <rect x="220" y="370" width="520" height="80" rx="20" fill="#fef3c7" />
  <text x="240" y="405" fill="#92400e" font-family="'Inter', 'Segoe UI', sans-serif" font-size="18" font-weight="600">Proof of payments</text>
  <rect x="240" y="416" width="180" height="18" rx="9" fill="#f59e0b" opacity="0.4" />
  <rect x="440" y="416" width="180" height="18" rx="9" fill="#f97316" opacity="0.4" />
  <defs>
    <filter id="cardShadow" x="160" y="90" width="640" height="400" filterUnits="userSpaceOnUse" color-interpolation-filters="sRGB">
      <feFlood flood-opacity="0" result="BackgroundImageFix" />
      <feColorMatrix in="SourceAlpha" type="matrix" values="0 0 0 0 0 0 0 0 0 0 0 0 0 0 0 0 0 0 127 0" />
      <feOffset dy="14" />
      <feGaussianBlur stdDeviation="22" />
      <feColorMatrix type="matrix" values="0 0 0 0 0.09 0 0 0 0 0.18 0 0 0 0 0.31 0 0 0 0.08 0" />
      <feBlend in2="BackgroundImageFix" result="effect1_dropShadow" />
      <feBlend in="SourceGraphic" in2="effect1_dropShadow" result="shape" />
    </filter>
  </defs>
</svg>
