<svg width="1200" height="780" viewBox="0 0 1200 780" fill="none" xmlns="http://www.w3.org/2000/svg">
  <defs>
    <linearGradient id="travel-bg" x1="1200" y1="0" x2="0" y2="780" gradientUnits="userSpaceOnUse">
      <stop offset="0" stop-color="#E0F2FE" />
      <stop offset="1" stop-color="#F0FDF4" />
    </linearGradient>
    <linearGradient id="travel-card" x1="0" y1="0" x2="520" y2="320" gradientUnits="userSpaceOnUse">
      <stop offset="0" stop-color="#1D4ED8" />
      <stop offset="1" stop-color="#22D3EE" />
    </linearGradient>
    <linearGradient id="travel-badge" x1="0" y1="0" x2="200" y2="200" gradientUnits="userSpaceOnUse">
      <stop offset="0" stop-color="#FBBF24" />
      <stop offset="1" stop-color="#F97316" />
    </linearGradient>
    <filter id="travel-shadow" x="0" y="0" width="560" height="360" color-interpolation-filters="sRGB" filterUnits="userSpaceOnUse">
      <feDropShadow dx="0" dy="24" stdDeviation="28" flood-color="#0F172A" flood-opacity="0.15" />
    </filter>
  </defs>
  <rect width="1200" height="780" rx="48" fill="url(#travel-bg)" />
  <g opacity="0.35">
    <path d="M200 240C340 140 420 140 560 220" stroke="#38BDF8" stroke-width="6" stroke-linecap="round" />
    <path d="M640 520C820 420 920 420 1100 520" stroke="#34D399" stroke-width="6" stroke-linecap="round" />
    <circle cx="240" cy="540" r="120" fill="#C7D2FE" />
    <circle cx="930" cy="260" r="110" fill="#A7F3D0" />
  </g>
  <g transform="translate(320 200)" filter="url(#travel-shadow)">
    <rect width="520" height="320" rx="40" fill="url(#travel-card)" />
    <rect x="48" y="72" width="280" height="28" rx="14" fill="#DBEAFE" opacity="0.4" />
    <rect x="48" y="124" width="320" height="28" rx="14" fill="#F8FAFC" opacity="0.55" />
    <rect x="48" y="176" width="280" height="28" rx="14" fill="#F8FAFC" opacity="0.35" />
    <rect x="48" y="232" width="380" height="28" rx="14" fill="#F8FAFC" opacity="0.25" />
    <circle cx="440" cy="108" r="32" fill="#F8FAFC" opacity="0.35" />
    <circle cx="440" cy="176" r="32" fill="#F8FAFC" opacity="0.2" />
  </g>
  <g transform="translate(780 160)">
    <circle cx="100" cy="100" r="92" fill="url(#travel-badge)" />
    <path d="M142 84L102 128L68 102" stroke="#F8FAFC" stroke-width="16" stroke-linecap="round" stroke-linejoin="round" />
  </g>
  <g transform="translate(220 520)">
    <rect x="0" y="0" width="240" height="140" rx="28" fill="#0F172A" opacity="0.85" />
    <circle cx="188" cy="42" r="14" fill="#38BDF8" opacity="0.7" />
    <circle cx="212" cy="82" r="10" fill="#22D3EE" opacity="0.5" />
    <path d="M40 52H160" stroke="#38BDF8" stroke-width="8" stroke-linecap="round" opacity="0.6" />
    <path d="M40 88H132" stroke="#38BDF8" stroke-width="8" stroke-linecap="round" opacity="0.4" />
  </g>
</svg>
