<svg width="1200" height="780" viewBox="0 0 1200 780" fill="none" xmlns="http://www.w3.org/2000/svg">
  <defs>
    <linearGradient id="security-bg" x1="0" y1="0" x2="1200" y2="780" gradientUnits="userSpaceOnUse">
      <stop offset="0" stop-color="#F8FAFC" />
      <stop offset="1" stop-color="#E0E7FF" />
    </linearGradient>
    <linearGradient id="shield-gradient" x1="0" y1="0" x2="320" y2="420" gradientUnits="userSpaceOnUse">
      <stop offset="0" stop-color="#1E3A8A" />
      <stop offset="1" stop-color="#22D3EE" />
    </linearGradient>
    <linearGradient id="lock-gradient" x1="0" y1="0" x2="200" y2="260" gradientUnits="userSpaceOnUse">
      <stop offset="0" stop-color="#F9A8D4" />
      <stop offset="1" stop-color="#F472B6" />
    </linearGradient>
    <filter id="shield-shadow" x="0" y="0" width="380" height="480" filterUnits="userSpaceOnUse" color-interpolation-filters="sRGB">
      <feDropShadow dx="0" dy="26" stdDeviation="32" flood-color="#0F172A" flood-opacity="0.18" />
    </filter>
  </defs>
  <rect width="1200" height="780" rx="48" fill="url(#security-bg)" />
  <g opacity="0.35">
    <circle cx="980" cy="240" r="120" fill="#38BDF8" />
    <circle cx="260" cy="260" r="140" fill="#A855F7" opacity="0.18" />
    <path d="M180 560C320 460 420 460 560 540" stroke="#94A3B8" stroke-width="6" stroke-linecap="round" />
    <path d="M660 400C820 300 940 300 1100 400" stroke="#38BDF8" stroke-width="6" stroke-linecap="round" />
  </g>
  <g transform="translate(420 200)" filter="url(#shield-shadow)">
    <path d="M160 0L320 72V260C320 326 284 392 160 440C36 392 0 326 0 260V72L160 0Z" fill="url(#shield-gradient)" />
    <path d="M160 48L64 92V258C64 302 80 344 112 378C136 404 168 424 200 436C232 424 264 404 288 378C320 344 336 302 336 258V92L240 48V168C240 212 204 248 160 248C116 248 80 212 80 168V48L160 48Z" fill="#F8FAFC" opacity="0.9" />
    <path d="M160 152C184 152 204 132 204 108C204 84 184 64 160 64C136 64 116 84 116 108C116 132 136 152 160 152Z" fill="#0EA5E9" opacity="0.8" />
  </g>
  <g transform="translate(760 320)">
    <rect x="0" y="0" width="240" height="200" rx="40" fill="url(#lock-gradient)" />
    <rect x="62" y="66" width="116" height="104" rx="32" fill="#FDF2F8" opacity="0.9" />
    <path d="M120 66V42C120 10 146 0 168 0C190 0 216 10 216 42V66" stroke="#FDF2F8" stroke-width="16" stroke-linecap="round" opacity="0.9" />
    <circle cx="120" cy="134" r="20" fill="#F472B6" />
  </g>
</svg>
